<mxfile host="app.diagrams.net" modified="2023-05-06T08:38:29.456Z" agent="Mozilla/5.0 (Windows NT 10.0; Win64; x64) AppleWebKit/537.36 (KHTML, like Gecko) Chrome/112.0.0.0 Safari/537.36" etag="Vfb_8_q9D-3Vs70XDbwY" version="21.2.9" type="device">
  <diagram name="Sayfa -1" id="3NGGQ2GQ6nxK6AoSwYtc">
    <mxGraphModel dx="1737" dy="423" grid="1" gridSize="10" guides="1" tooltips="1" connect="1" arrows="1" fold="1" page="1" pageScale="1" pageWidth="827" pageHeight="1169" math="0" shadow="0">
      <root>
        <mxCell id="0" />
        <mxCell id="1" parent="0" />
        <mxCell id="URqe0fx5BisHpjnqhQGu-1" value="" style="rounded=0;whiteSpace=wrap;html=1;fillColor=#f5f5f5;fontColor=#333333;strokeColor=#666666;" parent="1" vertex="1">
          <mxGeometry x="200" y="200" width="80" height="100" as="geometry" />
        </mxCell>
        <mxCell id="URqe0fx5BisHpjnqhQGu-13" style="rounded=0;orthogonalLoop=1;jettySize=auto;html=1;entryX=0.008;entryY=0.401;entryDx=0;entryDy=0;entryPerimeter=0;exitX=0.75;exitY=0;exitDx=0;exitDy=0;" parent="1" source="URqe0fx5BisHpjnqhQGu-1" target="URqe0fx5BisHpjnqhQGu-12" edge="1">
          <mxGeometry relative="1" as="geometry" />
        </mxCell>
        <mxCell id="URqe0fx5BisHpjnqhQGu-2" value="" style="rounded=0;whiteSpace=wrap;html=1;" parent="1" vertex="1">
          <mxGeometry x="217" y="210" width="56" height="20" as="geometry" />
        </mxCell>
        <mxCell id="URqe0fx5BisHpjnqhQGu-3" value="" style="ellipse;whiteSpace=wrap;html=1;aspect=fixed;fillColor=#f8cecc;strokeColor=#b85450;" parent="1" vertex="1">
          <mxGeometry x="203" y="210" width="10" height="10" as="geometry" />
        </mxCell>
        <mxCell id="URqe0fx5BisHpjnqhQGu-4" value="" style="ellipse;whiteSpace=wrap;html=1;aspect=fixed;fillColor=#d5e8d4;strokeColor=#82b366;" parent="1" vertex="1">
          <mxGeometry x="203" y="222" width="10" height="10" as="geometry" />
        </mxCell>
        <mxCell id="URqe0fx5BisHpjnqhQGu-6" value="" style="shape=image;verticalLabelPosition=bottom;labelBackgroundColor=default;verticalAlign=top;aspect=fixed;imageAspect=0;image=data:image/png,iVBORw0KGgoAAAANSUhEUgAAAMgAAADICAYAAACtWK6eAAABhWlDQ1BJQ0MgcHJvZmlsZQAAKJF9kT1Iw0AcxV9Ta0UqDnYQcchQBcGCqIhuUsUiWChthVYdTC79EJo0JCkujoJrwcGPxaqDi7OuDq6CIPgB4uripOgiJf4vKbSI8eC4H+/uPe7eAUK9zFSzYwxQNctIxWNiNrciBl8RQCeCmMGIxEw9kV7IwHN83cPH17soz/I+9+foUfImA3wi8SzTDYt4nXhq09I57xOHWUlSiM+JRw26IPEj12WX3zgXHRZ4ZtjIpOaIw8RisY3lNmYlQyWeJI4oqkb5QtZlhfMWZ7VcZc178heG8tpymus0BxHHIhJIQoSMKjZQhoUorRopJlK0H/PwDzj+JLlkcm2AkWMeFaiQHD/4H/zu1ixMjLtJoRgQeLHtjyEguAs0arb9fWzbjRPA/wxcaS1/pQ5Mf5Jea2mRI6B3G7i4bmnyHnC5A/Q/6ZIhOZKfplAoAO9n9E05oO8W6F51e2vu4/QByFBXSzfAwSEwXKTsNY93d7X39u+ZZn8/s0NywYmpz20AAAAGYktHRAC6AFcADbR270IAAAAJcEhZcwAALiMAAC4jAXilP3YAAAAHdElNRQfnBQYHOwgdOCC5AAAAGXRFWHRDb21tZW50AENyZWF0ZWQgd2l0aCBHSU1QV4EOFwAAA/BJREFUeNrt3dtu2zoQQFFP4f//5eljgcJtEkm8zHCtxwM00YVbJB3b5/UCAAAAAAAAAAAAAAAAAAAAAACA9cIl4IM0ngTCvRiOGGMCEYXxJhAWRlF67AlEGMagQIThYS0Qaoax9XgUiDCEIhBxCEUgwhCJQBgeRzQ7JoEIZNsxkNXHqkDOjSMcs0AEst/9LhWKQM4IJBpFPvWcBNI/kmgWu0AWbQJXigHnHgfcxxBI7zDu3oMcdF9zo3NZOoZDHKUD2fm6xsTjCIGIo+o1jcqRhDiOjSM3P98UyLlxrLz2Wei8l0cikHPiqPqR26WR/BLHEdIx9Q3E0qrvQMwB1ysFIo5OT+nc8LqV2oNko3OxjLl3/3L22H57MrPJ0iZfvrSh3xTcbAaJRb/3J8cwdRZ5G0MMeMBEwSWeTTrTZ9/V71JOgXBnMMWmAW4z8wjkjEjiG/+t4hLOJt0m3YsGKzfrZhCq7nemPBS9isWVJ37cHNj5g9+/dHUgEK4sXfKU5a0lFnf2CFf/zVMv1cbAYzSDcH8A/fXv280mZhBy0c8KgYAZBLPH8FkkBUKHOFYM6BAImEFAIPRfXi3fNzx5PAIBgYBAQCAgEEaLJr9j+PEIBARCYykQqi2Bnn6P1bLlmkBAIEx8Mm//Dl2BsCoSnyhEJA/8jKc+MzJ8DyMQnoik7Teb+NIGPg30kU/mUp9bFwgzB2Zu+rMssVhu1f/MJwRCtzi2IRB2jCN2CU4gdJ45QiCc9gLB1OgEQqWllT0IZo6HoguBIA4zCI0H/ahlVQiEDpH48mpEMjmOR2ck78Vip+XWVnGYQdjZFm9PEQhd4giBII6JcQgEcQgEe47rvIpF5TCGv3fLDEJVU97YKBDEIRBsygVC/5lg+udFBIJl1X94FQthmEEoGoBvVoTXxt/t2z2QXHQTR//e/OHxZedBbIm1T2zp/AXCvNnB+QsEkdR14ib9ib1Evgr8keuB4zl9tjSD2Jh+ef5xcjwCEYlrIBDsRQSCWUQgnpKtruv219ZbTfDAEcjjNzMmDIwodI3avmT8Nuitxc0YArFRFYZAhIFAhIFApg/6FBuf+DvIn8H7r3D8HeTg8AVy0IYTgXgaIpBFkfgkoUAwSMy4Arl340+M5NgHg0DsR74KI0++Pv5QeH3gRINzwAxiFnFdBLJiMOSh1+Koh4ZALFOEUXyqzCbn4eFR8N6ZQUAgIBAQCAgEBAICAYGAQEAgZXlnKgIRiXsx29uNAXsQuKTSV+xj/JlBQMFmEYqMvWofNBKJOByoSMThYEUiDgcsFFqMMwAAAAAAAAAAAAAAAAAAAAAAAAAAAAAAAAAAAAAAAIBv+w2D46wt9ecnbQAAAABJRU5ErkJggg==;clipPath=inset(11% 6% 20% 19%);" parent="1" vertex="1">
          <mxGeometry x="213" y="240" width="57" height="52.44" as="geometry" />
        </mxCell>
        <mxCell id="URqe0fx5BisHpjnqhQGu-8" style="edgeStyle=orthogonalEdgeStyle;rounded=0;orthogonalLoop=1;jettySize=auto;html=1;entryX=-0.009;entryY=0.382;entryDx=0;entryDy=0;entryPerimeter=0;" parent="1" source="URqe0fx5BisHpjnqhQGu-7" target="URqe0fx5BisHpjnqhQGu-1" edge="1">
          <mxGeometry relative="1" as="geometry" />
        </mxCell>
        <mxCell id="URqe0fx5BisHpjnqhQGu-7" value="" style="shape=image;verticalLabelPosition=bottom;labelBackgroundColor=default;verticalAlign=top;aspect=fixed;imageAspect=0;image=data:image/png,iVBORw0KGgoAAAANSUhEUgAAAZcAAADYCAYAAAAnH64AAAABhWlDQ1BJQ0MgcHJvZmlsZQAAKJF9kT1Iw0AcxV9Ta0UqDnYQcchQBcGCqIhuUsUiWChthVYdTC79EJo0JCkujoJrwcGPxaqDi7OuDq6CIPgB4uripOgiJf4vKbSI8eC4H+/uPe7eAUK9zFSzYwxQNctIxWNiNrciBl8RQCeCmMGIxEw9kV7IwHN83cPH17soz/I+9+foUfImA3wi8SzTDYt4nXhq09I57xOHWUlSiM+JRw26IPEj12WX3zgXHRZ4ZtjIpOaIw8RisY3lNmYlQyWeJI4oqkb5QtZlhfMWZ7VcZc178heG8tpymus0BxHHIhJIQoSMKjZQhoUorRopJlK0H/PwDzj+JLlkcm2AkWMeFaiQHD/4H/zu1ixMjLtJoRgQeLHtjyEguAs0arb9fWzbjRPA/wxcaS1/pQ5Mf5Jea2mRI6B3G7i4bmnyHnC5A/Q/6ZIhOZKfplAoAO9n9E05oO8W6F51e2vu4/QByFBXSzfAwSEwXKTsNY93d7X39u+ZZn8/s0NywYmpz20AAAAGYktHRAC6AFcADbR270IAAAAJcEhZcwAALiMAAC4jAXilP3YAAAAHdElNRQfnBQYIADOb3WGYAAAAGXRFWHRDb21tZW50AENyZWF0ZWQgd2l0aCBHSU1QV4EOFwAAIABJREFUeNrtnely4joQhVuSLS9hy/s/5EwSAhgvfX+MW1cIGwyxCcv5qqiZJCSAFx31TgQAAAAAAAAAAAAAAAAAAADAi7FYLFhrzUopJiImIo7jOPw/AAD8KhEOwf2QZRk3TUP7/Z6Y/9cIpZT79/Pz8+B3lFLu5/5zAQAA4vJi5HnOdV0fichutzv42p2k6N9papqGjDHEzAcPiAsA4N7ASnQDVqsV7/d7KsuSmqZxokBEnWLSJxTytf878n+lFEVRRFprKooC5xUAAMvl2ZjP51xVlbNMvr6+nBAMERUAAIC4ACIiiuOYq6oiay2VZUn7/Z6apum1OAAA4JnROATXY611WVoiHk3T0G63OxIVCAsA4JWAb/6ag/YvDbiXS4REKUVa64PfM8YQEVFd19Q0DaVpSk3TUFVVBwF8sYwEYwwZY2i/3+O8AgBgudw7q9WKtdZMRNxaK2OJlBMJP9AvoiFiURQFlWXpgvbyfP/vWGvdAwAAYLncMcvlkj8+PkhrfWAxnLNMLnWB+XUsSimq65riOHaPj48PnCcAAHh0jDGsteY4jp3FQkSstXbV8f4j/B79H4cZ9FitVgjIAABguTy5qFBZlp2WxSmrw88M82tP4jgmYwxtt1tKkoSstfT19YXjDgCAuDw7SZJwWZZkjDkSlnPiIu6yOI5JKeWq6He7HSmlaD6f0+fnJ44zAADi8iosFguWepSyLI9aqfji0YdketV17YQIggIAgLi8KJL1VZYlRVFEcRzTZrMhY8xBJtY5cRHe3t5ovV5DUAAA4BXFJUkSrqrKCYf/r1gefsyEqLuehIgoz3PETwAA4MXFha21B3Uk5/p8SWqwLzbt70NQAADgBE9fRJnnORMRG2PIWntkhZwSldByqetaQVgAAADiwhIzaZqGNpuNC7xfauFBVAAA4IJF8ykV81/ho68wR5aJj1gmWmvXy2u320FMAADgSsyzC0unogbikqapywrLsoy22y2EBQAAfrIWP8sHmc/nTEQ8JKYSUtc1LRYLqutabTYbCAsAAPyQp1hI0zRlaUnvZ3cJA9xiEBQAAIC4HAqLDOfqEw8ioiiK5PnEzLTZbCAqAAAwEQ/rFpvNZoPdYGmaUlmWpLUmpRSt12tkfwEAwIREj/imkyRhsVD2+/3Z9izb7ZaI/lXWo+cXAABMz8MttMYYNsaQ1vpoVn3vh/xX5/KworJarbiqKirL0o06JiI3udI7NhhzDACAuFxKHMedbrDwe1EUudb5cRxTWZYP8TkXiwUrpejr6+tHfwcuPwDAb/NIMReuqso1jTyFVOEvFou7FpY0Td2ES2MMb7dbWq/Xg7owAwAALJcRFmGttZvmGA70ClONrbV3W2GfJAkzs3NvSWuaoxPj9TaD5QIAgOUyIqvVipVSvNvt3AIcph13cW/C0nYNYK01SxKCiKBviYUNMwEAAJbLyMznc16v15SmKRVFEe7M3f/jOKYoiqgNeN/N53l/f+c/f/440QitklOW1yXi4o8DiKJIEh2gTgAAWC5dwlJVlcsICxffJEmI6F92lDSbvAdhmc/nbK1lrTX//fu3VzzGRrLGwuwxAACA5fK/JcJlWZIxhuq6dm4jf9GUzsX7/V6smN/+HKy1JmOMaz/jpwxPabn4VpzWmqIoQioyAACWi0+e51yWJWVZRk3TOIFpmqZzgW5buvzaQqq15jiOWUSltaBcjzOtNWmtnYBMEUtp/76iduYMhAUAAHE5FAsuioK01gcxFlmcjTEHu/S6rn9th55lGcdxzMxMdV0fuKS6AvLyGdrfpTiOqWkaNxkzTVMnRPI9YwwtFgtqmkade+AyBgDcG3exMCVJwsYYKoqC6rp2i7Es0vK11pr2+z3FcfwrwqK1ZrGifBE5FefwXWNdFfV1XbukBMyRAQBAXEbi/f2d//79S8xMeZ5TWZZHo4ibpnH1LXme03q9vun7VkpxlmVU1zUppVydzSXBc2YmrbV0DKAoiqgoCogJAOAp+XW32Ha7pTiOD4Skw2Kg/X5/c2HJ85yJiKMoorquD4QvTDA4hbT5j+OYdrudqutaQVgAAGA6WGt98DDGMBFx26DSFR8ul8tb59iyMYattUxEBw+l1MHD/5mkIsv/288AAAAvxa/tnuM4ZnExdWWCiRtMalpuZbEkScKSUCCB99BN1xWwl2FkZVlS0zT0/v5Of/78gXUCAIC43Arpr0VEtN/vD7KpZPGWwV5ZltHHx8et3ieLWEh9TdjHrEtcJEssyzLabDYQFAAAxOXWL9i6jQ7iF2EtSNM0lOc5xXF8E2HxW/mLqNR1fWSxnBIXeoKR0QAA8JBIgFziKcYY1lpzO1nS/SyOY86y7CaxijiOe2Mq8rUfE/Kf07bMBwAAEHCzbLEsy3iz2XRaAcxMaZq6uo9b1XwYY/hUppfUssRxTGmaklKKjDGU5zkxs0KDSAAA+GVxkVqVML4S9uEyxkwuLIvFQqwm5/o61e5eWuTXdU15niOuAgAAZ7jJItm6nkhmmYTTJGWBv8VI4jiOWTopS5sVX9z6LJhWICEqAABwD+KSpinLzj9crAVjDFlrb5FuzJKFFlpPvrhINX2SJLTdbm8mwgAAAHG5cEE/JS7MPLlVkGUZt0JxZDl1icutLCkAAIC4XCEsRETnxKWu60nfh6Q/S/v+ozcZuMRasYGoAADAlUwZ0Oc4jg/6hv0GaZqy1M5EUeSE5EwnYwgLAADcqbjIXPvOMbxaa2rnoUy5kPNut6OmaQ7mrfjvxVrrZsWkaYqgPQAAjMBUCynLIu5eyHOFed+fbCGfz+dcVdVRexnJEhNrprVuSGt91ynG8/mcN5uNa/vfcSzJWktRFCFVGgDwfJaLuKG64hj+IrhcLqf8XFxVlWR6HX7gNlusaRqXEbbb7dQ9Lchpmh50LSAi/vr6coPU/Iy3KUYnAwDAXYnLcrnk/X7fGc8Id9tT9QyTliy+xSKWiiCdluM4vpuBXVprttZylmVcFIUr3FRKOdddaHmJ0AAAwL0x6sLa9uTqzMhSStFisaDdbjfZgi7Fmv7r+2OGZaQwEUnh5K8Ky2w2481mc9LK67JO/K/FSpSCUGPMr4yABgCASSyXPM+Zmd1ckxBmps1m46yGKXb+xpjehViERToy/5awzGYzTpKEjTFubgwAAEBcepCFMqzGDxf6z8/P0Rd1sVj6hK1pGje7vn1/NxeWdpIml2VJZVn6Ioe4CQAA4tIjGmdbz0/lrpnNZlyWJUVRREVRUF3XR24lsVhaF9JNV3IJzK/Xayd04sJqLa6TNTcAAPDSlosEmbsecRyTtXb0N//+/s7r9Zq01lRV1UEFvtS2eKJyU2GZzWaslGJ/AJpSiqqqIqUUFUVBXVl1vpVnjCEpRJW6nCRJ3O/4I5iVUhRF0STHGQAALjY6bmG1EE1T9S4djsNRxGGvsLE+6yXHhJlpNpvRer0e7PYSMZbYkfzebrdzz7HWUp7nVNc1fX19wZ8GALhLop/+AWvtyTjLVMIi9TS73a4ziC/ikiTJzdKNkyThtrvzVYkLIopifXmfy/1nv9+fPd4AAPDQ4pIkCf9GnYXWmsuydGnFYVBc2rncSlhWqxVXVUXf398HbjmJs1watBcxRiwGAPCo/GjhVUqxZGGFO3Ap8hu7d1ie5+y7iXqeQ2VZ3spicQLb15nA76cWRZGLk9R1TWmaEhERRiYDAJ6Jq80Oay0rpY6ExV9k+1KDf8KQ2pCiKG4S2LbWcp7n/qTKLivrIFvNGOMaZkrrGQgLAADQv5oNYwy39SXcVua7h3xv7NdtA/hnH21NyWSsVivX88sYw0qps+8pSRLXL2zq9wcAAL/NVTvmOI45z3Nar9dHXXqJyLl+xmxfv1gsWGtNn5+fZ587Zdv82WzGRVE4i81aS1VVnfwdY4w8HxYKAADi0vtLrVWitXb1JB1t4EddSKWhY9iEkojo7e2NpEfXlLUsSim21na6AoPP7lxgVVVRHMfo9wUAeCmuibmwv5B2ZTSNnUHmC0sX6/X6Jm38+z5vIEAUx7ETQWZWEBYAADiDxBgkzhDGW6aItWitD2abyMN/H208YxLyPGf6lxXm/j33WCwWiKsAAF6Wi3bU7ULea0F4W/zRdupJkvR2Dw5ccZNN1ZS6Gd/l1fUeBIxKBgC8Ohf7r7qERdKOx455JEnCXfENqX6XxX4qYYnj2AmLCInXp8xV04sbLM9zCAsAAFwiLu/v7+wv6CFlWbqCwBEX9z7LiLTWlGXZZFXsrXvrKH7kv54UihKR9BGDsICnQWYPSXnBqYdSio0xzlVujOEkSTjLMm5T98GLccliyLJr73IFjZ0hNp/PD8b99olPWZaTNMSsqoqyLKPdbncgKL5rzFpLcRxDVMDDslgs2O/QXVXVQUamn8TSkRHqunET0UGHbt+N7G3YDrpYyOasqiqy1t7NyHFwY3FJ05T3+72k1R78TC6ukRd6juNYxhEf/MBa67Kyxl7YV6sV//37l8LXDm8srTXleU5xHNOfP39wU4CHEpSqqqgsSze2wRjjSgvEGhd3sHztj7Q4YfEfiYsvVET/3NoyIsP3AshzfLe3fI0N3JOKi2SA9c0f8drLj3IBLJdL/vr6cl+HF7QXYFdj33R+80n5bOHNYa0lrTX6gYGHQmvd2QuwxwtxtPD3/Xws17S8jv+vH9/0BWw+n9PHxwfuv2cRlzMXoxrzJghN8pApYhzGGO7bmcn7MMbIjgsXNngUWHrcFUVxtg7t3sUl3OTK2I+p3OTgynV8jD+SZdlobyjLMh5ywY4tLIvFgiXjLZyk6QtLa7LfzQWcZRlnWeaCqWmaIngKiOifK5vaVHoZA/4UShmsDfv9nrwmuq7nIRGxtRb3w72Ky5CiyO12O9piu91uzwrLYrEY/Sb8/v52o4d7rBpKkuTXxwi3N4srHt3tdgf+69+YrwPu0CXh3bd+/79L5grd6eeic1mcMsvJiw87sUmSBNlrtzpXQzYK4QUpZqh3Qke5YlerFX9/f1Nd10cZWt58mNEthyzLuK5rt0CH4iYxnrFn0wwVPgmkenU9RzecuPPSNEUs6LXhUwtvKDB+PNF3CYc1XeHvhW6q8Pf85/l1Yl2p/MYYIqKj5J1Tr9eVwTlEmLoENk1T2mw2uGfuQVxkh+xle4xyYuI45jiO3cx4EZUgDjLqRdC28aemadzrdPmUV6vVTbPCsizj7XZ7YI2ENzvEBfgkScKSTnyJuPgNaLsExrcWtNZH1rukE0u3cK8r+tHzul63K235VlZWn5i9vb0hQ21icTmoUPdPiNcGZrQTkKYp73a7g4uQmSVQR1EUjRqwm81mLGnVVVVR12cVS21M19+QY+DfgHIc+nZoEBcgU2G7xj+cEpcwC8sYM3kHbxFBZj4Soa6M1ClFJjwWvpUm/0/TlKIogthcyFkHvZ+LHrqJxJwd5Y1ozWVZdl5I4oJ7e3sb9cOv12s/+8vtoMKL+xbCIk0x9/u9qzkQ0ejb2QGwXC6lKr7Lyh+0uDKzYmZV1/VNOngXRaH2+70qy1K17ZLcY7lcUpZlvd05prBcwntMxpHLPVgUBX1/fxN5sRvEbUawXLq+KTGXMd1UcoME7jbXt2yCYVsuiybM+5fCraZpJt/F5XnuLJVTN0Aouv4iIr3NvLRN7LBexA3mWypy/vuulSzLSIon6QFT6fM8581m43tNSGvtvBt+3NR35fVtGk/db5cg2bK38m48vLgsl0ve7Xad6YteEHDUxV4yPDabzdENkyTJqO0hlFKcpiltt1vyd32+LzjLskkDfRJXuTTDy0+XDttwaK1xkb8AcRy7WKgkwPS1ZiL610Wj3YU/3bWhtXb1aVLdL50H/PujL2Y5hvUjHhBjDMVxTEmSvHyR56kPz63//qQ5PdaN4mdq+TeIt0NXY96Y8hkkRz5cpNvMlckuDmsth1lxl17QodCIMKKQ7OlhaaGS5zl9f3+fFBZr7U2s8HtBsj+lT5ovLtdYJkPuRYkLd7XQQRy0Y2ffN6QrSRL52Wjnp3VTcZZlB0O3iIjbYV2jsFgsDj6XX3BFXofXqY7rcrl0XWP9AWtDBpBNdUzA41grbZHx0fV65np5eWTgX9dww588yOsI3Y7oONk9Ws6JdJl/SfqEhYg4yzKez+ejHJzZbOZO0o0mWx59Hv+iaCdaTnLisyyTiuHOiZr+ReqLuxwXLBGvy2w2c10Yuq5fuS+9qawQlhO065c7Ttbag/suFIqhYuPdq50/63o8a1cNfc7t0kVRFPT19TWKmecH4KbOiOrL8CjLkuq6dr2XaIJg52Kx4N1u15l9Fx53KSaTrgBN0ygE6V/bYlmv187N0ocMrGuD/AqD6/pp1y8lx2m/3ysJ/PcVmQ5Zn66J6bRrwtN1EFB9VsuAlMZRLtxTzSK9EzbKa/WNTLbWEjP7PtPROwDIXJg0TQf1eEqSBH5aIIsOGWPIGENlWXYuXm3Cy6j3JkT9X9KExEb9+M05gel6Xtfv+TNtpH7Q32w3TUPL5fIhkwM637BSik+p71jdR+fzOX99fXWehKC9w2jpzn1C5t2co59ECd5L94EBFycWB0DUJtVIx1+/+t6/jrMso6IoRHxw7UyEMYaHWCZ94uIXRPvWpvxM5lT5yTqS9SbPk/qfRzjPV4nLYrGgz8/PMT7czVrLSD1J18UhmTetiTrqSfNjJadEZYqsOPC4O2b/upBrVmo6lFKSJu8WHGZ+mWyweyFNUy6KwmWLGWNot9uFIwCOam5CgfEzPsN1sOv54fOyLLvL7gHqlCl+xe9dvPD6BzBU/zHTncUl1hfbGfO1Qkupr2GeX6cwdh0PeHxhCcUlXGT8dOSxYqDgZx4KERWpk1uv150xnBE3r24zLinQ9xJrOwroz2azmwWT+qwjGZs8Fu/v79zXlHKq10yShPv+ZtgMsI3DYHGAsHBXb7CuxSRJEtcSCcJyH7SWoyrLUtV1rfxi8HNr3rU0TePicMYY+ddlnmZZ9msJAuoSq8Xb9f/4Yl4sFvz5+dmp5FJNPJaZH8cxR1FE0mW4QwhGXdxnsxlvt1uKoshvk3NkwYgPFn5yEMcxl2VJ1tqj9kddjRzbQDOumwfCHxf/0414WGjuxWJIKUXWWirL8qjryBTdTkYRF2lUOcZFba1laQoXHuyxe4nJSe0LtI09pjlJEg7bT3RdLKjcBe19xf51EQZ1pWuEbFQwzvd5xMZa67L8xIshIiFWbJ+wXNtxIHz+VOvQ4KZWssseqzNxn7D4rzXByZz8ghkiLEopWi6XEBbQuZkL58ZLgDhNU5rP5xCWZznxzKq1IKTehjabDUlzThm7HlqsY6yD/qNt8eV3JxmlA4jqUtOuRVEyH2jEwWDS7O3EcKMfv9Yt62jk9fpcGf5igRgLEGHp2kz514/URiHV+HV4f3/nts2/c3X586aumcR5ynCQeI3fIV4pRW9vby6c8Pb2dlGWsOpaHLuqyL02+6Nc3JJZcSIVebIiTd/1MHYDTqVUZwt/SSMdW8zA47FcLnmz2bjsnjDGEiIt3TGK93VpW/9IY9rejciVFpQbMVKWpevs3DY7dZNHw0agaZqStZa01p1TelVwEXNVVZ3T7OI4Hk1cJODdZ1GMHAM5mikeFqCN1aLeWsta66MKfH9yZyvSWCReFH9+TxgDDCchesO/cL2AcMPhxnV4KcgukO9npF46z2ZoB4Lw/yJIYhiocOftz5L3/4CYZGPsurXWJ4s0xxQXv51/l1iOZUVYa1lSAvvqWbBQYPfZdWOG4iLuYtQ+gaHM53PebDZU1/VBsW24DnXVS/1EXPzNs1LqoObqYEsvqWt9f3CsQPs5BR1rfLKkd3YdvKqqRq1t2e/3lGVZ53uXk7parXAXvLDFUtd15zUXBvAlrfSVheVZOwVPxdfXl2otBiWNbsUg8Ec4h8H8ETdO1DTNQc1V1HWhd73oqWFEYxNF0dnuwUMQYelS2rGLmeI4pu122ztmNooi+vv3L3ahL4hSyjVM3e/3ZzdpY6fGPwrtqABi5kHNXcHZ9c9dQ6vViv/8+XMgKmMNTwun4gqDTBHZSd2KqXdsfu3AWLusvm61RITpkC/Kcrl0s4GkmC1sBdLVGuRVLJZwcF9RFLTf793Gsp19BEagDbgrZlZN06jFYiHH2K1bsh6Ka1YyyMJpt1090M51liDqGYwjQ4rGmn44YLrbKJwaeEbjDgQ7OVSIJho+Bu6Xto1S70Ap/yFDqsK+Ys8quF33ZTidlSaeCAuOkQFqMiTNuyY7J5/6+tB1vsIdEve5vtoA+KgV8ycsix+/TpZlrmPpkbn2f7PM0TLS/J1nyNvb2692LfUHlUkHXTAtbbJI5/ye8Dqx1lKapk/rNs3znDebjWttI5ZJHMfuXpR5Jl3LBa6m3xMbWTfCddQfHyBZjWHTzMHiMtbwqtVqxR8fH+fcVqOJS1eCwhTi0tX5+Dfb6EtevKQliqjI12A6pAV7n6ugKyY3m83usm36TyyUvvs8dK2cymDK8xz1PXdGmqa82+0OBMbLcuwXl75g41iLsUxlnFpcWpOOurLFiFz/stFn0vjBrd8Ql9ZUPXnj9vRWA9cf8x8/39sBPuxCKtmZfsZkmAk35HhlWUZVVZEUWaPo+DHRP71RrtnV3Wr3eCrDbar+Zb+1WM9mMz435A3cv0AppUaLbd7qupOYrNRY/BRpVS+TGcGDi8v7+zuPuTvrY4wU46H0WS1jikuXi0Me0rPnFtZKWZajz6QBvycybdD7bi0UaoO7VVW5QVX+YLwfLUpt9lFVVa71CHhgcZFFv6+J3ljicq6J5C1cFuIfnNolMma684kbkSVojF3e49FlaUrfMan7uIuFos0OIqKDwuTdbufSVmUd8e/xayzptiBPNU2j0Dn8gTdK8h/J6EjT9Mi68C6m0WMUPTfcKPNiZP5Fl2Baa8dqed/Zu6xt3THWMev9jMaYg2ykviJOaQkBt9n9WCdd3+86P78Vc5AYyrkYXRjj8wP2fdec1FC0Q8+eLqEB9FTon3InPQr+BMjQWkrTlLIso3OJBT+xxm5xDMuyPKr47uon5GXH9T4HTGO9dhFu3qaM/13CbDZjKWIMLZBLjkWY4BKKS1fvtPV6jQvpmcVFLoQzO/HJb8Yxd9dyIfvsdjs38W0iF8LkFoIMJTtXGRtkrXUeX1gztxMXEXt/UzLA7cw0bcYhG2P87Cx334yx8fCzNv2u4Gjx8uT3BQ7B4zGfz/nr62vwzveR01ufGXE7hWLTEycc7RzOZjMWS8FPOvGbHLajbw8GVPVtRs5Zwrj+IC7gQfAHunUJixRMYm7MY5AkCXvjZo8W5yzLJD33p+eTh4iB77GQ2Ejwfmm327l/fXEac4oseGw0DsHjcUpYZLGAsDwORVGoKIpIa01Jkhz9fLPZXJXd6PW1YzrToqjvOupymYprz59g2LYIcfPgcVYBxOXRTlhb/3DKFXYvAWIwHIlJdMUhJKNqSHGl1KBYa1lG0MrfGCtxw+/ZVxSF8kQFAIjLI3NukUAvpse0Xk4N5DuVgNIO1jrovi3zzv0EgrGus7quVdM0CtYxOHn94BA8nLDwuUUAAdTHRFrud3WxEOGJoojSNKXPz8+jmpJrMcY4yylNUzesSxqetqnJuKYAxAXiAnF5RObzORdFcTK9XM61BM/HcIGGzU211jSfz+nj4wPXEYC4QFwgLo+OMYbP9efy25tLcexP65Qk1RhV8mBMEHN5MFDw+LwMKVr0f+5bLT/s2aeISEFYwJigjS4EBvz2Du/CDsh+0aXfgcEXmLAwU4RJa02LxUJmqgMwGbjAHlBbTu1mW/HBeb1zsixjaSv/k4C8Usq1apFEAGlTL9+DuwtAXADE5QXOnbRWkZ5bPwnKi7iIBSMxGa01MrzA71rkOAQATLh786rksyyjPM//3Xhad1osl1oxbZsfquuasiyj5XJJzKwgLACWC4Dl8mRkWeZa1xPRUeuWczEzY4xzl0VR5Aoiif71jZMsMaWU/AznG0BcAMTlGcVku912WiFdRY6nxMUPwIu7Kxy4hRgKeATgFgPgCmazGdO/KaRc1/WRdaK17nV9nSKOY0qS5GAOURRFtFgsZDOIlGHwECAVGYCBWGvd/Hj5d2ilvIyaPocIlcRQttutaprmKabDgtcCO6DHgzGc6TasViv+/v4+O+3z3PnomgbqPy+KIjftNY5jtF0BEBcAcXk25vP5wZRGEYdTcZJT50OExZ+N0o76JSI3AhjnC0BcAMTl2UjTlHe7HVlrnYtLBmCdGj081HLx+39Jl2GcI/DsIKAPXlZQpAalLEtKkoT2+z0ppagoCirLsrdf16VBem+miirLUkFYACwXAMvliUiShGUGCjMfzE3x3V7h/7uOtwiPZITJ70jgvmkayvMcg9sAxAVAXJ4Ray3L4u8LSt98+FBcun4mQ7REZCSTyxhD8/mc/v79i+MPIC44BBCXZ2Y2m7kBXCIacrz63FunxEWC/IFI4XgDEN4rOATgWYnjmL+/v6ksy9HGFDRNQ03T0Gw2IyJSEBYAYLnAcnnRYxUKS1cdilKKrLWklKLdbnf0/CRJaLfb4bgCAMsFgOGZXdJd2BeitoOxYmYFYQEA4gLAgWicI45j9/8kScSiV8j0AuAHGzscgsdbL+EWG36s+qwZ312GuAkA44PGleAlrRlkeV136LTWnbU/p8BmB+ICwMvQV30Puq0/rTUZY476pF1qQULUXwfEXMDLkabpj+bWPzur1crNqrHWUhzHR/NqLrUSjTEkVs9iseA4jtlay+1rAYgLAE+wFT/T5fhVybKMiYg/Pj4ORin/BLFytNYURf8cJX6qd1EUZIxhYwxOyJMB8/QB10YE9Icfq67jIwKDdvfu+uFzAvFTMR/yd+Xrtos0rmFYLgDcL9bao+/JDvqni+azWCpDLb1rH0P/rnS5f8PhAAARF0lEQVQ/aH+HlVLcvkfwgCCgD56Wa+MEr2KpbLdbyrLsqCPBL783V3ck3RKUUhxFEaxMWC4A3Afz+dxNfPSp65qUUlTXNWmtX2ZnnKYpp2nK0uaGiM6OcL41fqeEoihc9+koiijLMrbWwpp5lE0MDsHDgZjLFbv0rh3yqxyv8Biccgf6bix/VIEgi/1+v1enXk8KVbXWJMPYZADbNcPWwq+9WTy41mG5AHB72nYudGZxfcqdsNaa4zi+6LOJlSAxkCRJ3EA0aidpnhKWVqBU0zSqrmtVlqVaLpdkjKE0TckYc3Gmnh+XkbRmr2UPK6Uu/pxgGnyrEuICnpohDSe11vQsi1Oe50xEvFgs2B9kdglVVblO0EmSUNM0Pxot8PHxoTabjdrtdj+uL/ItKWOMi6uVZUlIAPjdjQwRse9mhUn5eMAtdiFD3EJexf6jHju21tJ+v5fxyp2fVxbmU4u8BNXH7gQ9m814v9+7+TqXuse6LB6/W4C1lqqqoqZpKI5j0lpTURS4Fya+t+I4pjRNab1eH6w/OPAQl6dnuVzybrej/X7fW/PiE8cxnXP93Mu14J//IYt1uPOX700trnEccxRFtN1uj9rHSIGlP9QtSRIqisKdj7quB7fs6bo/8jyn9XqN+2JcS6X3+Nd1reAWA0/Px8eHKsvSVZ2fo80w43vLJMuyjFsrjGWT4T8GLgpkjCGllDsWEk+ZSlhmsxnXde1SnruGt5Vl6aZ7vr+/O2ERC0uSA65xqzVNI7tqTpKEZ7MZXGdXkqbp2fvCXVc4XLBcXoU4jlmyl05ZLv7XkrYbx/HNd75pmrLEKWS37wvCtUWgxhgqy5LSNL3JdE1jDHvFkZ20Lj3V8X1mZme5iLicKtD0j4s/XkF+3z+Gq9WK/vz5g/tlwL3TNI2k758V89lsBnGBuLze8QtvjjD9Nly8tNZkraXdbkez2Uz6YVGSJPTx8fHjYz2fz7mqKqrrmqqqcr24tNbua2n86KXgXk0URbd0+7EIWvjeA0tSDf1bvhuwS2S6RFeyzOR3/A1GkiS03+8pTVPabre4dzpExVpL2+3WpZSfExelFMQF4vJ6KKVYeot17aj7vg5jG74Qdf3eD97fj34/SRK3EEicKUkSiqKIvr6+1C2Ps8RS/DiLfL4oiqiqqotjXLPZjNfrNSVJQlVVuVqaU8etK6mh9wZjJmstvb29vaxVM5/P+evry09D76Wua7d58JMqsAhBXF4ScbcMEZcHEMvO3aOwWq3o79+/N70m4jjmviC8WCxt49ChVssRq9WKt9stFUUhbrXOYxIen3P9zvz36Rdspmk6mrV67/cG0b/YY5ZlnV0uQnHxzqX8DYgLxOV1McZwl6vp0cXlHtKq4zjmviSKJEnIGEPb7XbM7sfct8O+RFyCzg3ue6FYnWrM+ajdtiXGZ62lsixdBt+5Hn3+/dNm+SkiFFGCF0YqyB9FPC5wl02W+TV0oS/LkrIs683O8+twRloYKY5j1/H6WqQzswT/ZWEVCzeMxclz/MdP38OtWa1W3HZzICI6cDEOaf6aZZm77vy6IuxwYbkAzx0gpr3s3sSX7C8qt27V78+t99OIZRG4p0B0kiTsu0f6dvat20WN+bp+Vln4+pKUIT+X3XbYFborueNSS6j9Wj3KNd/XvNTPsjPGkLWWiqKgNE2prmsqiuLAUjm6brGkAEBusWNm5bs9pNmiv4Dc0m3m39zyuk3TUJ7nRESKmdUdZThx6J/vy9yaQlgkkBy+VpqmLoOpLMsDN07b0v/g+T9J8xYWi8Vd+1attRzHMQ+5lmWDJRbdZrOR46xOdUDADheWC+jh/f2dPz8/B1eGTykw4p6o6/pez61LOR6QfTfqZ5Ddd99CKVaLiHCSJNw0jcs0u3Ts9RDLpa9u57fRWnNXvc8pMfWfd4lVBssFgB7+/Pmj6rpWzKyYWaVpSmmaTvZ6YVsU//uS7nmPJEnihOXWGGNOCou8L9+6K4pClWWpmFnNZrPRLVGt9dkMq9/A77EngiFu1jPi7bpaX2KQQFwAGMh2u1Xb7daJjf9YLpdkre1dqPxgcJqm1PU3zu2U7zGLTSnlssL6LIAoikhr7T73WK89n8+5a6RCkiTuvVhrT24IPj4+wvNw9nXFPSTjCbp+7o0E+HWMMSyZkX4bHb+1TigmzExRFFHTNBJjudj9CvfJ4wG32JOitT7rA5eFWuJB/vMlxXez2Ux6/lerFX99fbn6hnNdAzw3zKjvS4aS9Vl7Xo3K4NfN85y32+35m7B1VXa1Q5FuDr+9vhpjuMviPXeNSXug9the/RmwCEFcwB3tMGUE8ykrxou/OMGRRaMrZbadyXKUSSUtZcLqddmZ97XFEddPFEUuk+4UbceAsa9J9tOEu17zygWez7mJ3t7eaL1eqzzPWboM+Gw2G5XnOU8t8uc2Kl1rwxBxka7GPxZ/3NIQF/A4lksYfD0XaxARklTmroW4r5o9TL32BcuviRjQyFBNcaxkYma4uPtusSuC6p33V5AteLf3lwy9a2fZHCRYyOc6N2p6rPOFRQjiAu5IXM4t/n270VAQTtVrDGn0ePFCElS2S3HhFEWqxhg+9XmYWSwXdenf7bMcPWG+y3trNpvx9/c3ZVnmClT7im9lo9HGwKhpGhlxMOpni3BLA3AnuwZ+jjEjMuhrok3OoIPUTtK86A9LDCm0hO75vBhj3BA2ou7OB77l4o8g2O12kwomssUAAFOI5CQL1pB0Z2vtVd2f+9rJyzyfexMVasdHiGsyjmOy1p50U8o4B7Ewp7TEIC4A3Dm3bjfzU6YqHsyybJAJcapqvI88z7ksy14RaetW7uFEsFKKsyyjJElckkZVVVSWpesocU6gW6ty0s8DcQHgzkVEds5StyF1FH69Rdi2xP9bSZKQtZaiKOqsxg5b2/gPqYsIf2atpSRJ3M/b96KmivdZa7koioPsNInrRFFEcRy7uTXXIKm3XWnVfoeE30Jrze2DiIi+v79pv9+7cxRmBxKRi6lI6np7zahbTB+9FyUGl+9cTi5KCOg/JqcC+mELkzzPOUkS+v7+dhlTYWwgcH90phP3CUyfyPkTMqMooizL6PPzc/LrTSnFskiGvL290dfX19Wt7mXa4qk2ML/RHDRJks7uA0Pn0ciMG6mwv/X7xyIEcQF3Li6tS4j2+/3F9Qer1Yp3u53LCpLrxa+J6Wr26Hdglt3wLadYhte8P3UytC6apqEsyyhN06smRxpj+JSwtK95y8/O4bkIBUQslr5NwNvbG+33+0mywCAuEBfwYEjvp65UYe97r3ZuOc9z2m63zv3mZzyJuKRpSte4e/I8d+J74rxI1f2Ux559MfNdXX3D4PrERdq3/HbjTMRcHm93i4PwrKuol8lzwg3Cr3RMJKU4nKcj/5d2ONcu/OeaXsrxL4pC2s1wK3g/Og+z2Yzbc+liKX6/ryGzgySm4rtN2/eq7qEjM3a4D+g66eulBMvl8fVlyJOyLKM7muEyGV1jqOU6l5qUOI5/2kuNL83G8zsdiDVljHGJE3///lXv7+9cliVVVSWuqaMOCT+ZG+M3x/Tcm3d1TWARelDXCcTlOc/tkII9a60Mxnra85xlmXNXhdacP4JgPp/T379/rzoOEuO6dIH3z1Ge52dHNkuDy9D7cG23axEz72/e5XWARegBd7fnxq9CXJ7bcvGL+u5xINUYx8FfPENxCRITrv78aZpyXdfUN+b3nLiE4hD2Zev6WpqMdo1ivsRyat2Fd33usQg9GKeaG0JcnkNchu6kJaOr7Xj8FOdcAuy+kPSJy0/WrzzPWeqEwqp8vzln2JhzjFYw585vmqYkLjXflXarkQqjrVW4nx+Lt7e3IW4TxpF6LOI45izLLt5BV1VFdV1TmqZPcc5DF1NXgoNSilar1Siv0zUxcjabuQX+kqaho+0wmF2xqJ8lWBSFehRhgeXyoAyJu7SFZTi/D7Rbl5RaCQBfYM0S0T/f/iO7yWazGdd1ffbzx3F8VYuX0EL0XW/+vSMTGNvjeSRwP7VezgmUxJTm8/lD38OwXJ6Ur68v+mm6JLiNsBRFQdbao530qcK+cJfbNI38Lj+oFcPr9XqQZfBTYcmyzAmLZGz51f9eEaJaLpc3PxCti1M9+uYQO9tH3RW0k+b8bJe+uQ2wYu6PxWLB2+32aOKjEFbNh1MXu+an9DHRJMjRWK1W/Pn5STL8q6sCXyr0fxhb4sViQd/f3wfHTWIrdV27zshdccvFYuEE0B8fHCYehMWP0tdL2ub4n68dT/CU9yYWnEc9ce38cGOMy3bpG2nq95Lqmjn+LHNE7nZLHgzuGhIgDhtHyu9IHGDIDr/vOVIjkqbpr286sizjoih6hYXo/6mXWuurRdJay/L3/ePiH1dJjhiagTafz7koCnf/hUWe4dfWWsrz/OrUaYgLuPmNea6at28XDHH5HXEJv983+VB6ewU7W76kS4M/mTLscNzVU8z/HWMMaa1pNptd1bNryNvzOz53CYtcvz+JP2itWQaYhZ9VLEdxk7VFkVgXIS6vzfv7O398fJxcpLoslz5XDLi59enOkb/oi7BEUURRFB0tquISHUpfVbjfwFLERGauy/e6RMhzUYXWgWvH0mUtham/cj2GIhgWTl471CpJEpZZJ/71Hm6uoiii/X4v9wbWRIgLIDrMNJLW2v4ODSLyOJaN+P7l/8aY3kI5qS4/Z8X4i3aX9XRK9IZeQz+pcA9/3xcymddyTRt9SWqQmSe+cL+9vdFms3Hfb9vpYz2EuIAQqWuRIKM/UAnict+IOIhLJooiKsuSlsvlEN+8a0V/KnbzSOIiAiPZW1dW4HO78aK6ro8y8MR68dOQf1LpDyAuL7EJ9hcsiMvjWC1Jkvi77MH3ZZZlna6fRxYXec6lC74ci6IonFCLcIcWUTt47epW/WDAxgmH4Lk2C5dWeYNfPmHtwloUBc3n84s3fNvtVhVFoWSE8TPQxn0u/TAHwiJ1P22Dz4MnSqGmUgrCAssFXEMcx0xER72TwO8LilSBt66ZUe/D2WzGZVketHoXN5PE5vxJlETkijiloFPem1+v0ZdddoklEyYR+ILSNI24BQcfjzRN+VRFvz9jXlxhkizxrPUlEBcAwE1ZLpcsMQhfXNqg+YEQycLsZyL6mV1hBtpQcWk3PVQUBfmji70NkBr6WT4+Pshae3bzJJMkJa4FUbkNEQ4BAK/Bx8dH56LaNA29v7/zer2muq6PhnOFQ658AbkmpieuK6ltaWMjgxd8ay1L0eOQdvnSxaKqKlqtVhf3bgOwXAAANyDLMq6qqndhP2e5SHzoijnvLPEUeQ0vq8y99okOFFjvbggC+gCAi9hut6osS8XMR4/FYkFpmrqWLVKwKALAzK5/11CrxxjD7cO57cJiUP9rKeSU11ssFhAWWC4AgEcnjmMuy5Ksta7y3bdqxM0WRZGkUPetQ+wLVIcl0knTNJTnORVF8TRD1GC5AABeHsn28jsH+8IgLWaMMWStJa0153nOeZ5z25DVjQ1I0/Ti15fMNwgLLBcAwDMuLkqxn8os8ZLWuqH9fn8wV8UXH2maudvtDgQqbGffY7lgXYO4AACeHPYtCn+yY1+LonOpzSIu0k1ZrKQ8zzG3COICAHgVrLUsI4OTJKHdbne1uIQWjggLrJX7AzEXAMCk7Pd7Je6wvpktg82gVlSkn1pZlgrCAnEBALwoRVGoc7GSwYvWP7eaQidjAAAAzvigfxMoOUkSbgefsVKKjTHc9sM7eiil5P8AAABAN0opJyy+gGitD74fxzHneQ5RAQAAMJwsy3yrhOnfADSWAXgAAAAAAAAAAMB0/AeTITz/MsrzwwAAAABJRU5ErkJggg==;flipH=1;" parent="1" vertex="1">
          <mxGeometry x="-70" y="200" width="144.68" height="76.79" as="geometry" />
        </mxCell>
        <mxCell id="URqe0fx5BisHpjnqhQGu-19" style="edgeStyle=orthogonalEdgeStyle;rounded=0;orthogonalLoop=1;jettySize=auto;html=1;entryX=0;entryY=0.5;entryDx=0;entryDy=0;" parent="1" target="URqe0fx5BisHpjnqhQGu-18" edge="1">
          <mxGeometry relative="1" as="geometry">
            <mxPoint x="570" y="242" as="sourcePoint" />
          </mxGeometry>
        </mxCell>
        <mxCell id="URqe0fx5BisHpjnqhQGu-24" style="rounded=0;orthogonalLoop=1;jettySize=auto;html=1;exitX=0;exitY=0.5;exitDx=0;exitDy=0;entryX=0.923;entryY=0.973;entryDx=0;entryDy=0;entryPerimeter=0;" parent="1" edge="1" target="URqe0fx5BisHpjnqhQGu-12" source="URqe0fx5BisHpjnqhQGu-10">
          <mxGeometry relative="1" as="geometry">
            <mxPoint x="510" y="250" as="sourcePoint" />
            <mxPoint x="400" y="150" as="targetPoint" />
          </mxGeometry>
        </mxCell>
        <mxCell id="URqe0fx5BisHpjnqhQGu-10" value="" style="image;aspect=fixed;perimeter=ellipsePerimeter;html=1;align=center;shadow=0;dashed=0;spacingTop=3;image=img/lib/active_directory/generic_server.svg;" parent="1" vertex="1">
          <mxGeometry x="520" y="200" width="48.16" height="86" as="geometry" />
        </mxCell>
        <mxCell id="URqe0fx5BisHpjnqhQGu-14" style="rounded=0;orthogonalLoop=1;jettySize=auto;html=1;exitX=1.016;exitY=0.482;exitDx=0;exitDy=0;exitPerimeter=0;" parent="1" source="URqe0fx5BisHpjnqhQGu-12" edge="1">
          <mxGeometry relative="1" as="geometry">
            <mxPoint x="530" y="210" as="targetPoint" />
          </mxGeometry>
        </mxCell>
        <mxCell id="URqe0fx5BisHpjnqhQGu-25" style="rounded=0;orthogonalLoop=1;jettySize=auto;html=1;entryX=1;entryY=0.25;entryDx=0;entryDy=0;exitX=0.062;exitY=1.018;exitDx=0;exitDy=0;exitPerimeter=0;" parent="1" target="URqe0fx5BisHpjnqhQGu-1" edge="1" source="URqe0fx5BisHpjnqhQGu-12">
          <mxGeometry relative="1" as="geometry">
            <mxPoint x="390" y="150" as="sourcePoint" />
          </mxGeometry>
        </mxCell>
        <mxCell id="URqe0fx5BisHpjnqhQGu-12" value="" style="html=1;strokeWidth=1;shadow=0;dashed=0;shape=mxgraph.ios7.misc.wifi;fillColor=#007AFF;strokeColor=none;buttonText=;strokeColor2=#222222;fontColor=#222222;fontSize=8;verticalLabelPosition=bottom;verticalAlign=top;align=center;sketch=0;" parent="1" vertex="1">
          <mxGeometry x="360" y="80" width="60" height="65" as="geometry" />
        </mxCell>
        <mxCell id="URqe0fx5BisHpjnqhQGu-15" value="Cihaz Wi-Fi ağı üzerinden sunucuya RFID bilgisini iletir." style="text;html=1;strokeColor=none;fillColor=none;align=center;verticalAlign=middle;whiteSpace=wrap;rounded=0;fontStyle=1" parent="1" vertex="1">
          <mxGeometry x="330" y="40" width="120" height="30" as="geometry" />
        </mxCell>
        <mxCell id="URqe0fx5BisHpjnqhQGu-17" value="2" style="text;html=1;strokeColor=none;fillColor=none;align=center;verticalAlign=middle;whiteSpace=wrap;rounded=0;fontStyle=1" parent="1" vertex="1">
          <mxGeometry x="360" y="9" width="60" height="30" as="geometry" />
        </mxCell>
        <mxCell id="KFXSZYllk4r903XZGvah-1" style="edgeStyle=orthogonalEdgeStyle;rounded=0;orthogonalLoop=1;jettySize=auto;html=1;exitX=0;exitY=1;exitDx=0;exitDy=0;" parent="1" source="URqe0fx5BisHpjnqhQGu-18" edge="1">
          <mxGeometry relative="1" as="geometry">
            <mxPoint x="570" y="260" as="targetPoint" />
          </mxGeometry>
        </mxCell>
        <mxCell id="URqe0fx5BisHpjnqhQGu-18" value="" style="image;aspect=fixed;perimeter=ellipsePerimeter;html=1;align=center;shadow=0;dashed=0;spacingTop=3;image=img/lib/active_directory/database.svg;" parent="1" vertex="1">
          <mxGeometry x="700" y="216" width="70.27" height="52" as="geometry" />
        </mxCell>
        <mxCell id="URqe0fx5BisHpjnqhQGu-20" value="3" style="text;html=1;strokeColor=none;fillColor=none;align=center;verticalAlign=middle;whiteSpace=wrap;rounded=0;fontStyle=1" parent="1" vertex="1">
          <mxGeometry x="605" y="166" width="60" height="30" as="geometry" />
        </mxCell>
        <mxCell id="URqe0fx5BisHpjnqhQGu-21" value="Sunucu veritabanına bağlanarak kontrolleri gerçekleştirir." style="text;html=1;strokeColor=none;fillColor=none;align=center;verticalAlign=middle;whiteSpace=wrap;rounded=0;fontStyle=1" parent="1" vertex="1">
          <mxGeometry x="570" y="192" width="130" height="40" as="geometry" />
        </mxCell>
        <mxCell id="URqe0fx5BisHpjnqhQGu-26" value="4" style="text;html=1;strokeColor=none;fillColor=none;align=center;verticalAlign=middle;whiteSpace=wrap;rounded=0;fontStyle=1" parent="1" vertex="1">
          <mxGeometry x="360" y="149.99999999999997" width="60" height="30" as="geometry" />
        </mxCell>
        <mxCell id="URqe0fx5BisHpjnqhQGu-28" value="Sunucu cihaza kullanıcıya gösterilmesi için uygun yanıtı internet üzerinden döndürür." style="text;html=1;strokeColor=none;fillColor=none;align=center;verticalAlign=middle;whiteSpace=wrap;rounded=0;fontStyle=1" parent="1" vertex="1">
          <mxGeometry x="320" y="180.5" width="140" height="67" as="geometry" />
        </mxCell>
        <mxCell id="Gh3gujCFE96VWwD_GMoy-1" value="1" style="text;html=1;strokeColor=none;fillColor=none;align=center;verticalAlign=middle;whiteSpace=wrap;rounded=0;fontStyle=1" vertex="1" parent="1">
          <mxGeometry x="100" y="153" width="60" height="30" as="geometry" />
        </mxCell>
        <mxCell id="Gh3gujCFE96VWwD_GMoy-2" value="Öğrenci kişisel RFID kartını okutur." style="text;html=1;strokeColor=none;fillColor=none;align=center;verticalAlign=middle;whiteSpace=wrap;rounded=0;fontStyle=1" vertex="1" parent="1">
          <mxGeometry x="90" y="188" width="80" height="42" as="geometry" />
        </mxCell>
      </root>
    </mxGraphModel>
  </diagram>
</mxfile>
